<?xml version="1.0" standalone="no"?><!DOCTYPE svg PUBLIC "-//W3C//DTD SVG 1.1//EN" "http://www.w3.org/Graphics/SVG/1.1/DTD/svg11.dtd"><svg t="1589310969718" class="icon" viewBox="0 0 1024 1024" version="1.1" xmlns="http://www.w3.org/2000/svg" p-id="1751" xmlns:xlink="http://www.w3.org/1999/xlink" width="200" height="200"><defs><style type="text/css"></style></defs><path d="M765.12000031 457.28L765.12000031 307.20000031c0-137.59999969-111.67999969-249.28000031-249.28000031-249.28000031-1.60000031 0-2.88 0-4.8 0-1.27999969 0-3.19999969 0-4.48000031 0-137.59999969 0-249.28000031 111.67999969-249.28000031 249.28000031l-1e-8 150.07999969L168.96000031 457.28 168.96000031 972.8l686.4 0L855.36000031 457.28 765.12000031 457.28 765.12000031 457.28zM590.40000031 878.40000031l-155.52 0 38.08000032-166.72000031c-22.72000031-13.44-38.08000031-38.4-38.08000032-66.88000031 0-42.88000031 34.87999969-77.76 77.76-77.76 42.88000031 0 77.76 34.87999969 77.76 77.76 0 28.48000031-15.36 53.44000031-38.4 67.2L590.40000031 878.40000031 590.40000031 878.40000031zM640.32000031 457.28l-258.24 0L382.08000031 307.20000031c0-68.80000031 55.99999969-124.48000031 124.48000032-124.48000031 1.92 0 6.07999969 0 6.07999968 0s2.23999969 0 3.19999969 0c68.80000031 0 124.48000031 55.99999969 124.48000031 124.48000031L640.32000031 457.28 640.32000031 457.28zM640.32000031 457.28" p-id="1752"></path></svg>