<svg xmlns="http://www.w3.org/2000/svg" viewBox="0 0 152.66 152.66">
  <title>资源 2</title>
  <g id="图层_2" data-name="图层 2">
    <g id="图层_1-2" data-name="图层 1">
      <path fill="#fadb28" class="cls-1"
            d="M76.33,0A76.33,76.33,0,0,0,43.68,145.33c1-.51.37-1.69.34-2.5a44.39,44.39,0,0,1,3-17.74c2.93-7.66,7.69-14.16,12.64-20.51,2.09-2.68,4.22-5.11,2.16-8.76a2.29,2.29,0,0,1-.1-1.45c.51-2.23-1.35-2.82-3-3.9A55,55,0,0,1,38.7,68c-.83-1.71-1.29-3.23-3.12-3.74a4.45,4.45,0,0,1-3.23-4.08,4.54,4.54,0,0,1,1.79-4.64c2-1.34,4-1.53,5.84.1a4.83,4.83,0,0,1,1.27,6.08c-.53,1.2-1.11,1.84-.35,3.42a56.64,56.64,0,0,0,20.33,23c.6.4,1.41,1.18,1.72.79s-.7-1.36-1.1-2A42.4,42.4,0,0,1,55.27,69a73,73,0,0,1,.88-23.87c.38-2,1.05-3.62-.51-5.39a5,5,0,0,1,2.66-8.12,4.94,4.94,0,0,1,5.78,3.2A4.84,4.84,0,0,1,61.71,41a4.92,4.92,0,0,0-3.19,4.65c-.33,3.3-1,6.56-1.28,9.86-.82,10.24.4,20.08,5.95,29,.59,1,1.28,2.59,2.68,2,1.64-.66,1.26-1.84,1.22-3.64A101.71,101.71,0,0,1,67.63,68c.55-4.53,2.29-9.63,1.14-13.63-.5-1.72,1.15-3.3,3-3.81a3.07,3.07,0,0,1,3.84,1.8c.88,1.86.77,3.91-1.15,4.86-2.08,1-2.59,2.7-2.93,4.65a101,101,0,0,0-1.81,19.48c0,2.07.39,3.41,2.77,4,1.94.47,2.47-.36,3.47-2.26A108.8,108.8,0,0,0,88.44,40.45c.3-4,1.19-8.52-1.5-11.55-1.28-1.45-.34-3.69,1.18-4.93a3.33,3.33,0,0,1,4.49.22c1.49,1.35,2.07,3.48.67,4.84-2.23,2.17-2.12,4.81-2.22,7.39s-.12,5.08-.39,7.59a108.81,108.81,0,0,1-13,41c-.77,1.39-1,2.73.36,3.67.47.33,1.57-.59,2.41-1.22A42.88,42.88,0,0,0,94.06,69.58c.72-1.68,1.32-2.33,0-3.88a5,5,0,0,1,1.08-7.2A4.85,4.85,0,0,1,102,60.22a4.93,4.93,0,0,1-2.35,7.09c-1.88.69-2.44,2-3.1,3.7-2.77,7.16-7.44,12.91-13.13,17.89-1,.85-2.72,1.61-3.22,2.54.31.17.47.33.64.34a3.9,3.9,0,0,0,1.13-.1c13.4-3.62,24.41-10.69,32-22.78,1.16-1.84,1.74-3.3.31-5.48-1.77-2.69-.21-6.38,2.67-7.52a5,5,0,0,1,6.6,3.44,5,5,0,0,1-3.94,6.59c-1.78.33-1.79,2.66-2.59,4.09a45.9,45.9,0,0,1-10.43,12.76A56.39,56.39,0,0,1,83.31,94.61c-.74.15-2.94.23-2.92.55.06,1.06,1.25,1.15,2.14,1.27a52.28,52.28,0,0,0,30-5,3.66,3.66,0,0,0,2.25-2.76c.61-2.81,2.71-4.11,5-3.39a4.13,4.13,0,0,1,2.68,5.12,4,4,0,0,1-5.53,2.64c-1.32-.46-2.49.45-3.67,1.05-10.11,5.19-20.84,6.41-31.95,5-1.3-.16-2.07-.65-2.8.5a8.81,8.81,0,0,1-9.41,4.22,2.71,2.71,0,0,0-2.72,1.16C55.94,117.41,50,131.12,53.44,147.85a5.62,5.62,0,0,0,.46,1.45A76.33,76.33,0,1,0,76.33,0Z"/>
    </g>
  </g>
</svg>