<svg width="230px" height="131px" viewBox="0 0 230 131" version="1.1" xmlns="http://www.w3.org/2000/svg" xmlns:xlink="http://www.w3.org/1999/xlink">
  <!-- Generator: Sketch 52.5 (67469) - http://www.bohemiancoding.com/sketch -->
  <title>云+社区问答-插图</title>
  <desc>Created with Sketch.</desc>
  <defs>
    <linearGradient x1="0%" y1="0%" x2="100%" y2="82.6171875%" id="linearGradient-1">
      <stop stop-color="#006EFF" offset="0%"></stop>
      <stop stop-color="#DDECFF" offset="100%"></stop>
    </linearGradient>
  </defs>
  <g id="Page-1" stroke="none" stroke-width="1" fill="none" fill-rule="evenodd">
    <g id="0104总览页-全部产品" transform="translate(-1114.000000, -1033.000000)" fill-rule="nonzero">
      <g id="云+社区" transform="translate(964.000000, 1014.000000)">
        <g id="云+社区问答-插图">
          <g id="分组-21" transform="translate(223.000000, 19.000000)">
            <path d="M34.5283019,30.9316038 L70.0863619,58.8980959 L70.0863619,74.4055809 L34.5283019,46.4390889 L34.5283019,30.9316038 Z M69.0566038,15.1061321 L104.614664,43.0726242 L104.614664,58.5801092 L69.0566038,30.6136172 L69.0566038,15.1061321 Z M104.304245,2.13162821e-13 L139.862305,27.9664921 L139.862305,43.4739772 L104.304245,15.5074851 L104.304245,2.13162821e-13 Z M1.84741111e-13,46.7570755 L35.55806,74.7235676 L35.55806,120 L4.37396324e-13,92.0335079 L1.84741111e-13,46.7570755 Z" id="合并形状" fill="#DCDEDE"></path>
            <path d="M69.7759434,114.375 L34.5283019,114.375 L34.5283019,74.0919811 L69.7759434,74.0919811 L69.7759434,58.2665094 L104.304245,58.2665094 L104.304245,42.4410377 L139.551887,42.4410377 L139.551887,26.615566 L171.92217,26.615566 L171.92217,140 L139.551887,140 L104.304245,140 L104.304245,134.375 L69.7759434,134.375 L69.7759434,114.375 Z" id="合并形状" fill="#EFEFEF"></path>
            <path d="M34.5283019,30.9316038 L69.7759434,30.9316038 L104.971693,58.5584619 L69.7240516,58.5584619 L34.5283019,30.9316038 Z M69.0566038,15.1061321 L104.304245,15.1061321 L139.499995,42.7329902 L104.252354,42.7329902 L69.0566038,15.1061321 Z M104.304245,1.70530257e-13 L167.80425,1.70530257e-13 L203,27.6268581 L139.499995,27.6268581 L104.304245,1.70530257e-13 Z M0,46.7570755 L35.2476415,46.7570755 L70.4433912,74.3839336 L35.1957497,74.3839336 L0,46.7570755 Z" id="合并形状" fill="#F8F8F8"></path>
          </g>
          <g id="分组-21" transform="translate(150.000000, 90.000000)">
            <path d="M34.5283019,30.9316038 L70.0863619,58.8980959 L70.0863619,74.4055809 L34.5283019,46.4390889 L34.5283019,30.9316038 Z M69.0566038,15.1061321 L104.614664,43.0726242 L104.614664,58.5801092 L69.0566038,30.6136172 L69.0566038,15.1061321 Z M104.304245,2.13162821e-13 L139.862305,27.9664921 L139.862305,43.4739772 L104.304245,15.5074851 L104.304245,2.13162821e-13 Z M1.84741111e-13,46.7570755 L35.55806,74.7235676 L35.55806,120 L4.37396324e-13,92.0335079 L1.84741111e-13,46.7570755 Z" id="合并形状" fill="#DCDEDE"></path>
            <path d="M69.7759434,114.375 L34.5283019,114.375 L34.5283019,74.0919811 L69.7759434,74.0919811 L69.7759434,58.2665094 L104.304245,58.2665094 L104.304245,42.4410377 L139.551887,42.4410377 L139.551887,26.615566 L171.92217,26.615566 L171.92217,120 L139.551887,120 L104.304245,120 L104.304245,114.375 L69.7759434,114.375 Z" id="合并形状" fill="#EFEFEF"></path>
            <path d="M34.5283019,30.9316038 L69.7759434,30.9316038 L104.971693,58.5584619 L69.7240516,58.5584619 L34.5283019,30.9316038 Z M69.0566038,15.1061321 L104.304245,15.1061321 L139.499995,42.7329902 L104.252354,42.7329902 L69.0566038,15.1061321 Z M104.304245,1.70530257e-13 L139.551887,1.70530257e-13 L174.747637,27.6268581 L139.499995,27.6268581 L104.304245,1.70530257e-13 Z M0,46.7570755 L35.2476415,46.7570755 L70.4433912,74.3839336 L35.1957497,74.3839336 L0,46.7570755 Z" id="合并形状" fill="#F8F8F8"></path>
          </g>
          <circle id="椭圆形" fill="url(#linearGradient-1)" opacity="0.922781808" cx="277" cy="74" r="21"></circle>
          <circle id="椭圆形" fill="url(#linearGradient-1)" opacity="0.802060082" cx="246.5" cy="106.5" r="8.5"></circle>
          <circle id="椭圆形" fill="url(#linearGradient-1)" opacity="0.722563244" cx="207" cy="90" r="6"></circle>
          <circle id="椭圆形" fill="url(#linearGradient-1)" opacity="0.722563244" cx="194" cy="107" r="4"></circle>
        </g>
      </g>
    </g>
  </g>
</svg>