<?xml version="1.0" encoding="UTF-8"?>
<svg width="136px" height="136px" viewBox="0 0 136 136" version="1.1" xmlns="http://www.w3.org/2000/svg" xmlns:xlink="http://www.w3.org/1999/xlink">
    <!-- Generator: Sketch 52.2 (67145) - http://www.bohemiancoding.com/sketch -->
    <title>手机</title>
    <desc>Created with Sketch.</desc>
    <defs>
        <rect id="path-1" x="0" y="0" width="136" height="136"></rect>
        <linearGradient x1="199.547037%" y1="190.120804%" x2="0%" y2="0%" id="linearGradient-3">
            <stop stop-color="#FFFFFF" stop-opacity="0" offset="0%"></stop>
            <stop stop-color="#D7D7D7" offset="100%"></stop>
        </linearGradient>
    </defs>
    <g id="导航" stroke="none" stroke-width="1" fill="none" fill-rule="evenodd">
        <g id="总览页-填写" transform="translate(-1182.000000, -241.000000)">
            <g id="云+社区问答" transform="translate(964.000000, 241.000000)">
                <g id="手机" transform="translate(217.000000, 0.000000)">
                    <mask id="mask-2" fill="white">
                        <use xlink:href="#path-1"></use>
                    </mask>
                    <g id="Mask" opacity="0.608003162"></g>
                    <g id="分组-14" mask="url(#mask-2)">
                        <g transform="translate(11.000000, 9.000000)">
                            <path d="M109.419747,153.076053 C109.787939,152.470851 110,151.76019 110,151 L110,20 C110,17.790861 108.209139,16 106,16 L10,16 C7.790861,16 6,17.790861 6,20 L6,151 C6,151.76019 6.21206067,152.470851 6.58025314,153.076053 C2.70581257,151.374135 5.51465257e-16,147.503056 0,143 L0,11 C-7.43989126e-16,4.92486775 4.92486775,1.11598369e-15 11,0 L105,0 C111.075132,-1.11598369e-15 116,4.92486775 116,11 L116,143 C116,147.503056 113.294187,151.374135 109.419747,153.076053 Z" id="合并形状" fill="url(#linearGradient-3)" opacity="0.644833519"></path>
                            <path d="M48,7 L73,7 C73.5522847,7 74,7.44771525 74,8 C74,8.55228475 73.5522847,9 73,9 L48,9 C47.4477153,9 47,8.55228475 47,8 C47,7.44771525 47.4477153,7 48,7 Z M41,10 C39.8954305,10 39,9.1045695 39,8 C39,6.8954305 39.8954305,6 41,6 C42.1045695,6 43,6.8954305 43,8 C43,9.1045695 42.1045695,10 41,10 Z" id="合并形状" fill="#909090" opacity="0.209542411"></path>
                            <g id="分组-7" stroke-width="1" fill="none" transform="translate(15.000000, 29.000000)">
                                <path d="M1.5,12.4886145 L0.5,12.4886145 L0.5,3.3552378 C0.5,1.97452593 1.61928813,0.855237801 3,0.855237801 L12.7819554,0.855237801 L12.7819554,1.8552378 L3,1.8552378 C2.17157288,1.8552378 1.5,2.52681068 1.5,3.3552378 L1.5,12.4886145 Z M83.7819554,13.4886145 L83.7819554,4.3552378 C83.7819554,3.52681068 83.1103825,2.8552378 82.2819554,2.8552378 L72.5,2.8552378 L72.5,1.8552378 L82.2819554,1.8552378 C83.6626673,1.8552378 84.7819554,2.97452593 84.7819554,4.3552378 L84.7819554,13.4886145 L83.7819554,13.4886145 Z M84.7933409,74.8666233 L85.7933409,74.8666233 L85.7933409,84.1444372 C85.7933409,85.4453786 84.7387196,86.5 83.4377782,86.5 L73.5113855,86.5 L73.5113855,85.5 L83.4377782,85.5 C84.1864348,85.5 84.7933409,84.8930939 84.7933409,84.1444372 L84.7933409,74.8666233 Z M2.51138554,74.8666233 L2.51138554,84.1444372 C2.51138554,84.8930939 3.11829166,85.5 3.86694831,85.5 L13.7933409,85.5 L13.7933409,86.5 L3.86694831,86.5 C2.56600691,86.5 1.51138554,85.4453786 1.51138554,84.1444372 L1.51138554,74.8666233 L2.51138554,74.8666233 Z" id="合并形状" fill="#979797" fill-rule="nonzero"></path>
                            </g>
                        </g>
                    </g>
                </g>
            </g>
        </g>
    </g>
</svg>